<svg xmlns="http://www.w3.org/2000/svg" viewBox="0 0 980 720" width="980" height="720" font-family="'Segoe UI', system-ui, sans-serif">

  <!-- Background -->
  <rect width="980" height="720" fill="#070710" rx="16"/>

  <!-- ═══════════════════════════════════════
       MOBILE (left)
  ═══════════════════════════════════════ -->
  <!-- Phone frame -->
  <rect x="30" y="30" width="300" height="660" fill="#1a1a2e" rx="36"/>
  <rect x="40" y="40" width="280" height="640" fill="#0f0f13" rx="28"/>
  <!-- Notch -->
  <rect x="140" y="40" width="100" height="18" rx="9" fill="#1a1a2e"/>

  <!-- Status bar -->
  <text x="58" y="74" fill="#7a7a9a" font-size="10">9:41</text>
  <rect x="264" y="62" width="18" height="9" rx="2" fill="none" stroke="#7a7a9a" stroke-width="1"/>
  <rect x="265" y="63" width="13" height="7" rx="1" fill="#4caf7d"/>
  <rect x="284" y="64" width="7" height="6" rx="1" fill="#7a7a9a"/>

  <!-- Header -->
  <text x="180" y="108" text-anchor="middle" fill="#f5a623" font-size="16" font-weight="bold" letter-spacing="1">💡 LumiSetup</text>
  <text x="180" y="124" text-anchor="middle" fill="#7a7a9a" font-size="10">17:32</text>

  <!-- STATUS CARD -->
  <rect x="55" y="134" width="250" height="110" rx="12" fill="#1a1a24" stroke="#2a2a3a" stroke-width="1"/>
  <text x="70" y="153" fill="#7a7a9a" font-size="8" letter-spacing="1">ÉTAT DU SYSTÈME</text>
  <!-- dots -->
  <circle cx="72" cy="168" r="5" fill="#4caf7d"/>
  <rect cx="72" cy="168" width="0" height="0" fill="none"/>
  <circle cx="72" cy="168" r="5" fill="#4caf7d" filter="url(#glow)"/>
  <text x="84" y="172" fill="#e8e8f0" font-size="11">LEDs allumées</text>
  <circle cx="72" cy="188" r="5" fill="#f5a623"/>
  <text x="84" y="192" fill="#e8e8f0" font-size="11">Mouvement détecté !</text>
  <circle cx="72" cy="208" r="5" fill="#4caf7d"/>
  <text x="84" y="212" fill="#e8e8f0" font-size="11">Dans la plage horaire</text>
  <circle cx="72" cy="228" r="5" fill="#7a7a9a"/>
  <text x="84" y="232" fill="#e8e8f0" font-size="11">Override inactif</text>

  <!-- CONTROLS CARD -->
  <rect x="55" y="254" width="250" height="190" rx="12" fill="#1a1a24" stroke="#2a2a3a" stroke-width="1"/>
  <text x="70" y="273" fill="#7a7a9a" font-size="8" letter-spacing="1">CONTRÔLES</text>

  <!-- System toggle -->
  <text x="70" y="293" fill="#e8e8f0" font-size="11">Système actif</text>
  <text x="70" y="306" fill="#7a7a9a" font-size="9">Désactiver éteint tout</text>
  <rect x="255" y="284" width="38" height="20" rx="10" fill="#4caf7d"/>
  <circle cx="283" cy="294" r="8" fill="white"/>

  <line x1="65" y1="318" x2="295" y2="318" stroke="#2a2a3a" stroke-width="1"/>

  <!-- Mode buttons -->
  <text x="70" y="334" fill="#7a7a9a" font-size="8" letter-spacing="1">MODE</text>
  <rect x="65" y="340" width="112" height="36" rx="8" fill="rgba(245,166,35,0.1)" stroke="#f5a623" stroke-width="1.5"/>
  <text x="121" y="363" text-anchor="middle" fill="#f5a623" font-size="12" font-weight="bold">AUTO</text>
  <rect x="183" y="340" width="112" height="36" rx="8" fill="transparent" stroke="#2a2a3a" stroke-width="1.5"/>
  <text x="239" y="363" text-anchor="middle" fill="#7a7a9a" font-size="12" font-weight="bold">ON</text>

  <line x1="65" y1="388" x2="295" y2="388" stroke="#2a2a3a" stroke-width="1"/>

  <!-- Override button -->
  <text x="70" y="404" fill="#7a7a9a" font-size="8" letter-spacing="1">OVERRIDE</text>
  <rect x="65" y="410" width="230" height="24" rx="8" fill="transparent" stroke="#e05c5c" stroke-width="1.5"/>
  <text x="180" y="426" text-anchor="middle" fill="#e05c5c" font-size="11">🔆 Maintenir allumé</text>

  <!-- CONFIG CARD (partial) -->
  <rect x="55" y="454" width="250" height="140" rx="12" fill="#1a1a24" stroke="#2a2a3a" stroke-width="1"/>
  <text x="70" y="473" fill="#7a7a9a" font-size="8" letter-spacing="1">LEDS</text>

  <!-- Color row -->
  <text x="70" y="493" fill="#e8e8f0" font-size="11">Couleur</text>
  <rect x="255" y="481" width="36" height="26" rx="6" fill="#ffc864" stroke="#3a3a4a" stroke-width="1"/>

  <!-- Brightness -->
  <text x="70" y="516" fill="#e8e8f0" font-size="11">Intensité</text>
  <text x="295" y="516" text-anchor="end" fill="#7a7a9a" font-size="10">80%</text>
  <rect x="70" y="522" width="220" height="5" rx="2.5" fill="#2a2a3a"/>
  <rect x="70" y="522" width="176" height="5" rx="2.5" fill="#f5a623"/>
  <circle cx="246" cy="524" r="7" fill="#f5a623" stroke="#0f0f13" stroke-width="1.5"/>

  <!-- Nb LEDs -->
  <text x="70" y="550" fill="#e8e8f0" font-size="11">Nombre de LEDs</text>
  <rect x="240" y="539" width="50" height="22" rx="6" fill="#0f0f13" stroke="#2a2a3a" stroke-width="1"/>
  <text x="265" y="554" text-anchor="middle" fill="#e8e8f0" font-size="11">30</text>

  <!-- Fade toggle -->
  <text x="70" y="578" fill="#e8e8f0" font-size="11">Effet fondu</text>
  <rect x="255" y="566" width="38" height="20" rx="10" fill="#4caf7d"/>
  <circle cx="283" cy="576" r="8" fill="white"/>

  <!-- Home indicator -->
  <rect x="130" y="666" width="100" height="4" rx="2" fill="#3a3a5a"/>

  <!-- ═══════════════════════════════════════
       DESKTOP (right)
  ═══════════════════════════════════════ -->
  <!-- Browser frame -->
  <rect x="360" y="30" width="590" height="660" fill="#1a1a2e" rx="12"/>
  <!-- Browser chrome -->
  <rect x="360" y="30" width="590" height="44" rx="12" fill="#12121a"/>
  <rect x="360" y="62" width="590" height="12" fill="#12121a"/>
  <!-- Traffic lights -->
  <circle cx="384" cy="52" r="6" fill="#e05c5c"/>
  <circle cx="402" cy="52" r="6" fill="#f5a623"/>
  <circle cx="420" cy="52" r="6" fill="#4caf7d"/>
  <!-- URL bar -->
  <rect x="440" y="42" width="320" height="22" rx="11" fill="#0f0f13" stroke="#2a2a3a" stroke-width="1"/>
  <text x="600" y="57" text-anchor="middle" fill="#7a7a9a" font-size="10">🔒  lumisetup.local</text>

  <!-- Page bg -->
  <rect x="360" y="74" width="590" height="616" fill="#0f0f13"/>

  <!-- Page header -->
  <text x="655" y="112" text-anchor="middle" fill="#f5a623" font-size="20" font-weight="bold" letter-spacing="1">💡 LumiSetup</text>
  <text x="655" y="130" text-anchor="middle" fill="#7a7a9a" font-size="11">17:32</text>

  <!-- 2-column grid -->
  <!-- Col 1 Row 1 : Status -->
  <rect x="375" y="142" width="278" height="118" rx="12" fill="#1a1a24" stroke="#2a2a3a" stroke-width="1"/>
  <text x="392" y="161" fill="#7a7a9a" font-size="8" letter-spacing="1">ÉTAT DU SYSTÈME</text>
  <circle cx="394" cy="176" r="5" fill="#4caf7d"/><text x="406" y="180" fill="#e8e8f0" font-size="11">LEDs allumées</text>
  <circle cx="394" cy="196" r="5" fill="#f5a623"/><text x="406" y="200" fill="#e8e8f0" font-size="11">Mouvement détecté !</text>
  <circle cx="394" cy="216" r="5" fill="#4caf7d"/><text x="406" y="220" fill="#e8e8f0" font-size="11">Dans la plage horaire</text>
  <circle cx="394" cy="236" r="5" fill="#7a7a9a"/><text x="406" y="240" fill="#e8e8f0" font-size="11">Override inactif</text>

  <!-- Col 2 Row 1 : Controls -->
  <rect x="663" y="142" width="278" height="118" rx="12" fill="#1a1a24" stroke="#2a2a3a" stroke-width="1"/>
  <text x="680" y="161" fill="#7a7a9a" font-size="8" letter-spacing="1">CONTRÔLES</text>
  <text x="680" y="181" fill="#e8e8f0" font-size="11">Système actif</text>
  <rect x="898" y="170" width="34" height="18" rx="9" fill="#4caf7d"/>
  <circle cx="922" cy="179" r="7" fill="white"/>
  <line x1="678" y1="194" x2="932" y2="194" stroke="#2a2a3a" stroke-width="1"/>
  <text x="680" y="210" fill="#7a7a9a" font-size="8" letter-spacing="1">MODE</text>
  <rect x="678" y="216" width="118" height="30" rx="8" fill="rgba(245,166,35,0.1)" stroke="#f5a623" stroke-width="1.5"/>
  <text x="737" y="235" text-anchor="middle" fill="#f5a623" font-size="11" font-weight="bold">AUTO</text>
  <rect x="802" y="216" width="118" height="30" rx="8" fill="transparent" stroke="#2a2a3a" stroke-width="1.5"/>
  <text x="861" y="235" text-anchor="middle" fill="#7a7a9a" font-size="11" font-weight="bold">ON</text>

  <!-- Col 1 Row 2 : LEDs config -->
  <rect x="375" y="270" width="278" height="160" rx="12" fill="#1a1a24" stroke="#2a2a3a" stroke-width="1"/>
  <text x="392" y="289" fill="#7a7a9a" font-size="8" letter-spacing="1">LEDS</text>
  <text x="392" y="309" fill="#e8e8f0" font-size="11">Couleur</text>
  <rect x="610" y="297" width="32" height="24" rx="6" fill="#ffc864" stroke="#3a3a4a" stroke-width="1"/>
  <text x="392" y="334" fill="#e8e8f0" font-size="11">Intensité</text>
  <text x="644" y="334" text-anchor="end" fill="#7a7a9a" font-size="10">80%</text>
  <rect x="392" y="340" width="250" height="5" rx="2.5" fill="#2a2a3a"/>
  <rect x="392" y="340" width="200" height="5" rx="2.5" fill="#f5a623"/>
  <circle cx="592" cy="342" r="7" fill="#f5a623" stroke="#0f0f13" stroke-width="1.5"/>
  <text x="392" y="368" fill="#e8e8f0" font-size="11">Nombre de LEDs</text>
  <rect x="593" y="356" width="50" height="22" rx="6" fill="#0f0f13" stroke="#2a2a3a" stroke-width="1"/>
  <text x="618" y="371" text-anchor="middle" fill="#e8e8f0" font-size="11">30</text>
  <text x="392" y="396" fill="#e8e8f0" font-size="11">Effet fondu</text>
  <rect x="610" y="384" width="34" height="18" rx="9" fill="#4caf7d"/>
  <circle cx="634" cy="393" r="7" fill="white"/>
  <text x="392" y="422" fill="#e8e8f0" font-size="11">Durée allumage</text>
  <rect x="593" y="410" width="50" height="22" rx="6" fill="#0f0f13" stroke="#2a2a3a" stroke-width="1"/>
  <text x="618" y="425" text-anchor="middle" fill="#e8e8f0" font-size="11">120s</text>

  <!-- Col 2 Row 2 : Time range -->
  <rect x="663" y="270" width="278" height="160" rx="12" fill="#1a1a24" stroke="#2a2a3a" stroke-width="1"/>
  <text x="680" y="289" fill="#7a7a9a" font-size="8" letter-spacing="1">DÉTECTION &amp; PLAGE HORAIRE</text>
  <text x="680" y="314" fill="#e8e8f0" font-size="11">Début plage horaire</text>
  <rect x="845" y="302" width="80" height="22" rx="6" fill="#0f0f13" stroke="#2a2a3a" stroke-width="1"/>
  <text x="885" y="317" text-anchor="middle" fill="#e8e8f0" font-size="11">18:00</text>
  <text x="680" y="342" fill="#e8e8f0" font-size="11">Fin plage horaire</text>
  <rect x="845" y="330" width="80" height="22" rx="6" fill="#0f0f13" stroke="#2a2a3a" stroke-width="1"/>
  <text x="885" y="345" text-anchor="middle" fill="#e8e8f0" font-size="11">23:00</text>
  <text x="680" y="370" fill="#e8e8f0" font-size="11">Fuseau horaire</text>
  <rect x="845" y="358" width="80" height="22" rx="6" fill="#0f0f13" stroke="#2a2a3a" stroke-width="1"/>
  <text x="885" y="373" text-anchor="middle" fill="#e8e8f0" font-size="11">UTC+1</text>
  <text x="680" y="398" fill="#e8e8f0" font-size="11">Anti-rebond PIR</text>
  <rect x="845" y="386" width="80" height="22" rx="6" fill="#0f0f13" stroke="#2a2a3a" stroke-width="1"/>
  <text x="885" y="401" text-anchor="middle" fill="#e8e8f0" font-size="11">2s</text>
  <!-- Override btn -->
  <rect x="678" y="414" width="254" height="26" rx="8" fill="transparent" stroke="#e05c5c" stroke-width="1.5"/>
  <text x="805" y="431" text-anchor="middle" fill="#e05c5c" font-size="11">🔆 Maintenir allumé</text>

  <!-- Full width save row -->
  <rect x="375" y="442" width="566" height="44" rx="12" fill="#1a1a24" stroke="#2a2a3a" stroke-width="1"/>
  <rect x="390" y="452" width="260" height="24" rx="8" fill="#f5a623"/>
  <text x="520" y="468" text-anchor="middle" fill="#111" font-size="11" font-weight="bold">💾 Enregistrer la configuration</text>
  <rect x="665" y="452" width="260" height="24" rx="8" fill="transparent" stroke="#e05c5c" stroke-width="1"/>
  <text x="795" y="468" text-anchor="middle" fill="#e05c5c" font-size="11">📶 Réinitialiser le WiFi</text>

  <!-- Footer -->
  <text x="655" y="510" text-anchor="middle" fill="#3a3a5a" font-size="10">Conçu par Egalistel · egamaker.be</text>

  <!-- Label tags -->
  <rect x="360" y="690" width="590" height="0" fill="none"/>

</svg>
